<svg xmlns="http://www.w3.org/2000/svg" width="760" height="440" viewBox="0 0 760 440" role="img" aria-labelledby="title desc">
  <title id="title">HR and operations dashboard illustration</title><desc id="desc">Confidentiality-safe dashboard illustration with workforce and operations indicators.</desc>
  <rect width="760" height="440" fill="#eaf4f5"/><text x="48" y="55" fill="#17324d" font-family="Arial" font-size="15" font-weight="700">HR &amp; OPERATIONS · MANAGEMENT VIEW</text>
  <g transform="translate(48 86)" font-family="Arial"><rect width="664" height="298" rx="18" fill="#ffffff"/><g transform="translate(28 30)"><circle cx="58" cy="58" r="50" fill="none" stroke="#dce6eb" stroke-width="14"/><path d="M58 8 A50 50 0 1 1 15 83" fill="none" stroke="#2aa198" stroke-width="14" stroke-linecap="round"/><text x="58" y="54" text-anchor="middle" fill="#17324d" font-size="14" font-weight="700">PEOPLE</text><text x="58" y="75" text-anchor="middle" fill="#5c6b77" font-size="11">TREND</text></g><g transform="translate(170 34)"><text x="0" y="18" fill="#5c6b77" font-size="12">ATTENDANCE PATTERN</text><path d="M0 102 H450" stroke="#dce6eb"/><path d="M0 82 C65 65 90 92 145 55 S240 72 300 46 S385 22 450 34" fill="none" stroke="#176b87" stroke-width="5"/><g fill="#2aa198"><circle cx="0" cy="82" r="5"/><circle cx="145" cy="55" r="5"/><circle cx="300" cy="46" r="5"/><circle cx="450" cy="34" r="5"/></g></g><g transform="translate(28 175)"><rect width="188" height="87" rx="12" fill="#102b43"/><text x="16" y="30" fill="#aee8e3" font-size="11">WORKFORCE REPORTING</text><text x="16" y="61" fill="#ffffff" font-size="18" font-weight="700">Validated</text></g><g transform="translate(238 175)"><rect width="188" height="87" rx="12" fill="#176b87"/><text x="16" y="30" fill="#d8e8ef" font-size="11">FLEET &amp; FUEL</text><text x="16" y="61" fill="#ffffff" font-size="18" font-weight="700">Monitored</text></g><g transform="translate(448 175)"><rect width="188" height="87" rx="12" fill="#2aa198"/><text x="16" y="30" fill="#e6fffc" font-size="11">DATA PRIVACY</text><text x="16" y="61" fill="#ffffff" font-size="18" font-weight="700">Protected</text></g></g>
</svg>

