<svg xmlns="http://www.w3.org/2000/svg" width="760" height="440" viewBox="0 0 760 440" role="img" aria-labelledby="title desc">
  <title id="title">Customer order cleaning workflow illustration</title><desc id="desc">Raw data passes through data quality checks into validated reporting data.</desc>
  <rect width="760" height="440" fill="#f4f8fa"/><text x="48" y="58" fill="#17324d" font-family="Arial" font-size="15" font-weight="700">CUSTOMER ORDERS · DATA QUALITY PIPELINE</text>
  <g font-family="Arial"><g transform="translate(48 112)"><rect width="185" height="220" rx="18" fill="#ffffff" stroke="#dce6eb"/><text x="22" y="35" fill="#5c6b77" font-size="11">RAW ORDERS</text><g transform="translate(22 62)" fill="#dce6eb"><rect width="141" height="12" rx="6"/><rect y="30" width="110" height="12" rx="6"/><rect y="60" width="141" height="12" rx="6"/><rect y="90" width="86" height="12" rx="6"/></g><circle cx="153" cy="158" r="14" fill="#fff1c9"/><text x="153" y="163" text-anchor="middle" fill="#9a6b00" font-size="16" font-weight="700">!</text></g><path d="M254 222 H300" stroke="#176b87" stroke-width="5" stroke-linecap="round"/><path d="M289 210 L304 222 289 234" fill="none" stroke="#176b87" stroke-width="5" stroke-linecap="round"/><g transform="translate(325 98)"><rect width="170" height="248" rx="18" fill="#102b43"/><text x="20" y="34" fill="#aee8e3" font-size="11">POWER QUERY</text><g transform="translate(20 66)" fill="#ffffff" font-size="13"><text y="0">✓ Profile columns</text><text y="38">✓ Review nulls</text><text y="76">✓ Correct types</text><text y="114">✓ Check duplicates</text><text y="152">✓ Validate output</text></g></g><path d="M516 222 H562" stroke="#2aa198" stroke-width="5" stroke-linecap="round"/><path d="M551 210 L566 222 551 234" fill="none" stroke="#2aa198" stroke-width="5" stroke-linecap="round"/><g transform="translate(585 112)"><rect width="127" height="220" rx="18" fill="#2aa198"/><circle cx="64" cy="77" r="35" fill="#ffffff" fill-opacity=".2"/><path d="M47 77 L59 89 82 61" fill="none" stroke="#ffffff" stroke-width="7" stroke-linecap="round" stroke-linejoin="round"/><text x="64" y="151" text-anchor="middle" fill="#ffffff" font-size="13" font-weight="700">ANALYSIS</text><text x="64" y="173" text-anchor="middle" fill="#e6fffc" font-size="11">READY</text></g></g>
</svg>

