<svg xmlns="http://www.w3.org/2000/svg" width="760" height="440" viewBox="0 0 760 440" role="img" aria-labelledby="title desc">
  <title id="title">DataPulse Python project illustration</title><desc id="desc">Python dependency validation beside a clean analytical chart.</desc>
  <rect width="760" height="440" fill="#eaf4f5"/><text x="48" y="58" fill="#17324d" font-family="Arial" font-size="15" font-weight="700">DATAPULSE · REPRODUCIBLE ANALYSIS ENVIRONMENT</text>
  <g transform="translate(48 90)"><rect width="302" height="290" rx="18" fill="#102b43"/><g font-family="monospace" font-size="13"><text x="22" y="38" fill="#aee8e3">$ python verify.py</text><text x="22" y="76" fill="#ffffff">pandas</text><text x="232" y="76" fill="#7ee2bb">✓ ready</text><text x="22" y="108" fill="#ffffff">numpy</text><text x="232" y="108" fill="#7ee2bb">✓ ready</text><text x="22" y="140" fill="#ffffff">matplotlib</text><text x="232" y="140" fill="#7ee2bb">✓ ready</text><text x="22" y="172" fill="#ffffff">openpyxl</text><text x="232" y="172" fill="#7ee2bb">✓ ready</text><path d="M22 198 H280" stroke="#ffffff" stroke-opacity=".15"/><text x="22" y="232" fill="#d8a83e">environment:</text><text x="138" y="232" fill="#ffffff">.venv</text><text x="22" y="263" fill="#7ee2bb">Status: READY</text></g></g><g transform="translate(380 90)"><rect width="332" height="290" rx="18" fill="#ffffff"/><text x="20" y="36" fill="#17324d" font-family="Arial" font-size="12" font-weight="700">ANALYSIS OUTPUT</text><path d="M34 235 H302 M34 66 V235" stroke="#dce6eb"/><g fill="#176b87"><rect x="62" y="175" width="32" height="60" rx="5"/><rect x="116" y="135" width="32" height="100" rx="5"/><rect x="170" y="151" width="32" height="84" rx="5"/><rect x="224" y="93" width="32" height="142" rx="5"/></g><path d="M62 164 C110 142 134 162 170 120 S232 84 276 68" fill="none" stroke="#2aa198" stroke-width="5" stroke-linecap="round"/></g>
</svg>
