<svg xmlns="http://www.w3.org/2000/svg" width="760" height="440" viewBox="0 0 760 440" role="img" aria-labelledby="title desc">
  <title id="title">Ghana Adventures dashboard illustration</title><desc id="desc">Three metrics and a monthly trend visual for a tourism analytics case study.</desc>
  <rect width="760" height="440" fill="#102b43"/><text x="48" y="55" fill="#aee8e3" font-family="Arial" font-size="14" font-weight="700">GHANA ADVENTURES · PERFORMANCE VIEW</text>
  <g font-family="Arial"><g transform="translate(48 88)"><rect width="205" height="94" rx="14" fill="#ffffff" fill-opacity=".1"/><text x="18" y="30" fill="#c8d9e2" font-size="12">TOTAL REVENUE</text><text x="18" y="68" fill="#ffffff" font-size="27" font-weight="700">GHS 152,250</text></g><g transform="translate(277 88)"><rect width="205" height="94" rx="14" fill="#ffffff" fill-opacity=".1"/><text x="18" y="30" fill="#c8d9e2" font-size="12">REPEAT RATE</text><text x="18" y="68" fill="#ffffff" font-size="27" font-weight="700">37.8%</text></g><g transform="translate(506 88)"><rect width="205" height="94" rx="14" fill="#2aa198"/><text x="18" y="30" fill="#e6fffc" font-size="12">SPEND UPLIFT</text><text x="18" y="68" fill="#ffffff" font-size="27" font-weight="700">44.6%</text></g></g>
  <g transform="translate(48 215)"><rect width="663" height="174" rx="14" fill="#ffffff"/><text x="20" y="30" fill="#17324d" font-family="Arial" font-size="13" font-weight="700">MONTHLY BOOKINGS &amp; REVENUE</text><path d="M32 135 H630" stroke="#dce6eb"/><path d="M32 96 H630 M32 58 H630" stroke="#eaf0f3"/><path d="M45 119 C100 90 135 112 188 72 S280 112 337 88 S430 35 495 58 S575 66 625 28" fill="none" stroke="#2aa198" stroke-width="5" stroke-linecap="round"/><g fill="#176b87"><rect x="55" y="105" width="26" height="30" rx="4"/><rect x="123" y="82" width="26" height="53" rx="4"/><rect x="191" y="94" width="26" height="41" rx="4"/><rect x="259" y="59" width="26" height="76" rx="4"/><rect x="327" y="78" width="26" height="57" rx="4"/><rect x="395" y="43" width="26" height="92" rx="4"/><rect x="463" y="55" width="26" height="80" rx="4"/><rect x="531" y="25" width="26" height="110" rx="4"/></g></g>
</svg>

